<svg xmlns="http://www.w3.org/2000/svg" width="64" height="64" viewBox="0 0 64 64">
  <rect width="64" height="64" fill="#111"/>
  <g transform="translate(8,8)">
    <path d="M24 0c13.255 0 24 10.745 24 24 0 8.837-7.163 16-16 16h-16C7.163 40 0 32.837 0 24 0 10.745 10.745 0 24 0z" fill="#fff"/>
    <circle cx="16" cy="18" r="4" fill="#111"/>
    <circle cx="32" cy="18" r="4" fill="#111"/>
    <rect x="18" y="28" width="12" height="4" rx="2" fill="#111"/>
    <rect x="14" y="34" width="20" height="3" rx="1.5" fill="#111"/>
    <path d="M12 40h24v4H12z" fill="#fff"/>
    <circle cx="22" cy="46" r="2" fill="#111"/>
    <circle cx="30" cy="46" r="2" fill="#111"/>
  </g>
</svg>
